# xmcd
#
# Track frame offsets:
#	150
#	16787
#	33143
#	50882
#	63519
#	77227
#	90170
#	111516
#	128132
#	143996
#	160384
#	171419
#	186411
#	202280
#	217367
#	236490
#	248629
#
# Disc length: 3533 seconds
#
# Revision: 4
# Processed by: cddbd v1.5.1PL0 Copyright (c) Steve Scherf et al.
# Submitted via: audiograbber 1.83.01
#
DISCID=fe0dcb11
DTITLE=1996-03 Country Radio - 1996-03 Country Radio
DYEAR=1996
DGENRE=Country
TTITLE0=Sammy Kershaw - Meant To Be
TTITLE1=Sawyer Brown - Treat Her Right
TTITLE2=Daryle Singletary - Too Much Fun (Dance Remix)
TTITLE3=Don Cox - I Never Met A Woman I Didn't Like
TTITLE4=Jeff Moore - She's Over You
TTITLE5=Rich Mccready - Thinkin' Strait
TTITLE6=Jeff Carson - Holdin' On To Something (Dance Remix)
TTITLE7=Bryan White - I'm Not Supposed To Love You Anymore
TTITLE8=Tim Mcgraw - All I Want Is A Life
TTITLE9=Keith Gattis - Little Drops Of My Heart
TTITLE10=Doug Supernaw - She Never Looks Back
TTITLE11=Perfect Stranger - Remember The Ride
TTITLE12=Martina Mcbride - Phones Are Ringin' All Over Town
TTITLE13=Paul Brandt - My Heart Has A History
TTITLE14=John Michael Montgomery - Long As I Live
TTITLE15=Wendt Brothers - Letting Go
TTITLE16=Hank Williams Jr. - Houston, We Have A Problem
EXTD=
EXTT0=
EXTT1=
EXTT2=
EXTT3=
EXTT4=
EXTT5=
EXTT6=
EXTT7=
EXTT8=
EXTT9=
EXTT10=
EXTT11=
EXTT12=
EXTT13=
EXTT14=
EXTT15=
EXTT16=
PLAYORDER=
